<?xml version="1.0"?>
<!DOCTYPE svg PUBLIC "-//W3C//DTD SVG 1.1//EN" "http://www.w3.org/Graphics/SVG/1.1/DTD/svg11.dtd">
<svg xmlns="http://www.w3.org/2000/svg" xmlns:xl="http://www.w3.org/1999/xlink" version="1.1" viewBox="167 180 70 32" width="70pt" height="32pt"><metadata xmlns:dc="http://purl.org/dc/elements/1.1/"><dc:date>2013-03-21 09:08Z</dc:date><!-- Produced by OmniGraffle Professional 5.1 --></metadata><defs></defs><g stroke="none" stroke-opacity="1" stroke-dasharray="none" fill="none" fill-opacity="1"><title>Canvas 1</title><g><title>Layer 1</title><path d="M 228.18555 209.44238 L 176.03711 209.44238 C 172.43887 209.44238 169.51855 203.34451 169.51855 195.83105 C 169.51855 188.3176 172.43887 182.21973 176.03711 182.21973 L 228.18555 182.21973 C 231.78378 182.21973 234.7041 188.3176 234.7041 195.83105 C 234.7041 203.34451 231.78378 209.44238 228.18555 209.44238" fill="white"/><path d="M 228.18555 209.44238 L 176.03711 209.44238 C 172.43887 209.44238 169.51855 203.34451 169.51855 195.83105 C 169.51855 188.3176 172.43887 182.21973 176.03711 182.21973 L 228.18555 182.21973 C 231.78378 182.21973 234.7041 188.3176 234.7041 195.83105 C 234.7041 203.34451 231.78378 209.44238 228.18555 209.44238 M 176.03711 209.44238 C 179.63535 209.44238 182.55566 203.34451 182.55566 195.83105 C 182.55566 188.3176 179.63535 182.21973 176.03711 182.21973" stroke="black" stroke-linecap="round" stroke-linejoin="round" stroke-width="2"/></g></g></svg>
