<?xml version="1.0"?>
<!DOCTYPE svg PUBLIC "-//W3C//DTD SVG 1.1//EN" "http://www.w3.org/Graphics/SVG/1.1/DTD/svg11.dtd">
<svg xmlns="http://www.w3.org/2000/svg" xmlns:xl="http://www.w3.org/1999/xlink" version="1.1" viewBox="154 200 112 80" width="112pt" height="80pt"><metadata xmlns:dc="http://purl.org/dc/elements/1.1/"><dc:date>2014-02-02 20:26Z</dc:date><!-- Produced by OmniGraffle Professional 5.1 --></metadata><defs></defs><g stroke="none" stroke-opacity="1" stroke-dasharray="none" fill="none" fill-opacity="1"><title>Canvas 1</title><g><title>Layer 1</title><rect x="177.375" y="216.85547" width="19.842529" height="19.842529" fill="#6afcb9"/><rect x="177.375" y="216.85547" width="19.842529" height="19.842529" stroke="black" stroke-linecap="round" stroke-linejoin="round" stroke-width="2"/><rect x="196.70825" y="216.85547" width="19.842529" height="19.842529" fill="#6afcb9"/><rect x="196.70825" y="216.85547" width="19.842529" height="19.842529" stroke="black" stroke-linecap="round" stroke-linejoin="round" stroke-width="2"/><rect x="177.375" y="236.69798" width="19.842529" height="19.842514" fill="#73ffaa"/><rect x="177.375" y="236.69798" width="19.842529" height="19.842514" stroke="black" stroke-linecap="round" stroke-linejoin="round" stroke-width="2"/><rect x="197.21751" y="236.69798" width="19.842529" height="19.842514" fill="#6efdb2"/><rect x="197.21751" y="236.69798" width="19.842529" height="19.842514" stroke="black" stroke-linecap="round" stroke-linejoin="round" stroke-width="2"/><rect x="177.375" y="256.5405" width="19.842529" height="19.842529" fill="#9aa5ff"/><rect x="177.375" y="256.5405" width="19.842529" height="19.842529" stroke="black" stroke-linecap="round" stroke-linejoin="round" stroke-width="2"/><rect x="197.21751" y="256.5405" width="19.842529" height="19.842529" fill="#9aa8f8"/><rect x="197.21751" y="256.5405" width="19.842529" height="19.842529" stroke="black" stroke-linecap="round" stroke-linejoin="round" stroke-width="2"/><rect x="217.21742" y="256.5405" width="19.842529" height="19.842529" fill="#9aaaf0"/><rect x="217.21742" y="256.5405" width="19.842529" height="19.842529" stroke="black" stroke-linecap="round" stroke-linejoin="round" stroke-width="2"/><rect x="217.21742" y="236.69798" width="19.842529" height="19.842514" fill="#6afcb9"/><rect x="217.21742" y="236.69798" width="19.842529" height="19.842514" stroke="black" stroke-linecap="round" stroke-linejoin="round" stroke-width="2"/><rect x="217.21742" y="217.19731" width="19.842529" height="19.842529" fill="#67fbbf"/><rect x="217.21742" y="217.19731" width="19.842529" height="19.842529" stroke="black" stroke-linecap="round" stroke-linejoin="round" stroke-width="2"/><line x1="237.7266" y1="276.38303" x2="261.42969" y2="252.67188" stroke="black" stroke-linecap="round" stroke-linejoin="round" stroke-width="2"/><line x1="237.7266" y1="216.53915" x2="261.42969" y2="204.03386" stroke="black" stroke-linecap="round" stroke-linejoin="round" stroke-width="2"/><line x1="261.42969" y1="204.03386" x2="261.42969" y2="252.67188" stroke="black" stroke-linecap="round" stroke-linejoin="round" stroke-width="2"/><line x1="261.42969" y1="204.03386" x2="204.01953" y2="204.03386" stroke="black" stroke-linecap="round" stroke-linejoin="round" stroke-width="2"/><line x1="204.01953" y1="204.03386" x2="177.375" y2="216.20833" stroke="black" stroke-linecap="round" stroke-linejoin="round" stroke-width="2"/><line x1="237.7266" y1="256.5405" x2="261.42969" y2="237.01329" stroke="black" stroke-linecap="round" stroke-linejoin="round" stroke-width="2"/><line x1="237.05994" y1="236.69798" x2="261.42969" y2="221.89073" stroke="black" stroke-linecap="round" stroke-linejoin="round" stroke-width="2"/><line x1="216.55077" y1="217.19731" x2="240.02106" y2="204.03386" stroke="black" stroke-linecap="round" stroke-linejoin="round" stroke-width="2"/><line x1="196.70825" y1="217.19731" x2="222.04297" y2="204.03386" stroke="black" stroke-linecap="round" stroke-linejoin="round" stroke-width="2"/><line x1="250.01369" y1="209.65234" x2="251.03474" y2="263.07034" stroke="black" stroke-linecap="round" stroke-linejoin="round" stroke-width="2"/><line x1="190.27989" y1="210.3118" x2="250.01369" y2="209.65234" stroke="black" stroke-linecap="round" stroke-linejoin="round" stroke-width="2"/><rect x="157.708435" y="217.19731" width="19.842529" height="19.842529" fill="#6afcb9"/><rect x="157.708435" y="217.19731" width="19.842529" height="19.842529" stroke="black" stroke-linecap="round" stroke-linejoin="round" stroke-width="2"/><rect x="157.708435" y="237.03983" width="19.842529" height="19.842529" fill="#73ffaa"/><rect x="157.708435" y="237.03983" width="19.842529" height="19.842529" stroke="black" stroke-linecap="round" stroke-linejoin="round" stroke-width="2"/><rect x="157.708435" y="256.88232" width="19.842529" height="19.842529" fill="#9aa5ff"/><rect x="157.708435" y="256.88232" width="19.842529" height="19.842529" stroke="black" stroke-linecap="round" stroke-linejoin="round" stroke-width="2"/><line x1="186.7627" y1="204.03386" x2="157.708435" y2="216.20833" stroke="black" stroke-linecap="round" stroke-linejoin="round" stroke-width="2"/><line x1="203.62402" y1="203.96973" x2="186.7627" y2="204.03386" stroke="black" stroke-linecap="round" stroke-linejoin="round" stroke-width="2"/><line x1="191.1219" y1="209.92706" x2="172.22589" y2="210.12515" stroke="black" stroke-linecap="round" stroke-linejoin="round" stroke-width="2"/></g></g></svg>
