<?xml version="1.0"?>
<!DOCTYPE svg PUBLIC "-//W3C//DTD SVG 1.1//EN" "http://www.w3.org/Graphics/SVG/1.1/DTD/svg11.dtd">
<svg xmlns="http://www.w3.org/2000/svg" xmlns:xl="http://www.w3.org/1999/xlink" version="1.1" viewBox="141 140 147 78" width="147pt" height="78pt"><metadata xmlns:dc="http://purl.org/dc/elements/1.1/"><dc:date>2013-03-20 11:20Z</dc:date><!-- Produced by OmniGraffle Professional 5.1 --></metadata><defs></defs><g stroke="none" stroke-opacity="1" stroke-dasharray="none" fill="none" fill-opacity="1"><title>Canvas 1</title><g><title>Layer 1</title><path d="M 165.14999 143.4707 L 263.85 143.4707 C 275.52481 143.4707 285 159.48671 285 179.2207 C 285 198.9547 275.52481 214.9707 263.85 214.9707 L 165.14999 214.9707 C 153.4752 214.9707 144 198.9547 144 179.2207 C 144 159.48671 153.4752 143.4707 165.14999 143.4707" fill="white"/><path d="M 165.14999 143.4707 L 263.85 143.4707 C 275.52481 143.4707 285 159.48671 285 179.2207 C 285 198.9547 275.52481 214.9707 263.85 214.9707 L 165.14999 214.9707 C 153.4752 214.9707 144 198.9547 144 179.2207 C 144 159.48671 153.4752 143.4707 165.14999 143.4707" stroke="black" stroke-linecap="round" stroke-linejoin="round" stroke-width="3"/></g></g></svg>
